<svg width="30" height="32" viewBox="0 0 30 32" fill="none" xmlns="http://www.w3.org/2000/svg">
<path d="M18.871 0C19.2273 2.34472e-05 19.5162 0.289447 19.5162 0.646466V2.64331C25.5951 4.57691 30 10.2771 30 17.0085C30 24.7836 24.1234 31.1834 16.5781 31.9917C15.6888 32.0869 14.9612 31.3512 14.9612 30.4549V29.2958C14.9612 28.3996 15.6906 27.686 16.5748 27.5512C18.9069 27.1958 20.9901 26.0818 22.5663 24.4686L15.0388 17.0085V6.34471C15.013 6.34452 14.987 6.34423 14.9612 6.34423C9.63188 6.34426 5.21754 10.2693 4.43999 15.3918C4.30547 16.2778 3.5933 17.0085 2.69888 17.0085H1.54197C0.647537 17.0085 -0.0867715 16.2795 0.0083049 15.3883C0.652836 9.34705 4.86036 4.37363 10.4839 2.61869V0.646466C10.4839 0.289433 10.7728 0 11.1291 0H18.871Z" fill="#B1EFE0"/>
</svg>
