<svg width="32" height="32" viewBox="0 0 32 32" fill="none" xmlns="http://www.w3.org/2000/svg">
<rect width="32" height="32" fill="#333333"/>
<path d="M18.3226 6C18.5364 6.00001 18.7097 6.17186 18.7097 6.38384V7.56947C22.3571 8.71754 25 12.1021 25 16.0988C25 20.7153 21.474 24.5152 16.9469 24.9951C16.4133 25.0516 15.9767 24.6147 15.9767 24.0826V23.3944C15.9767 22.8622 16.4143 22.4385 16.9449 22.3585C18.3441 22.1475 19.5941 21.4861 20.5398 20.5282L16.0233 16.0988V9.76717C16.0078 9.76706 15.9922 9.76689 15.9767 9.76689C12.7791 9.7669 10.1305 12.0974 9.664 15.1389C9.58328 15.6649 9.15598 16.0988 8.61933 16.0988H7.92518C7.38852 16.0988 6.94794 15.6659 7.00498 15.1368C7.3917 11.5498 9.91622 8.59684 13.2904 7.55485V6.38384C13.2904 6.17185 13.4637 6 13.6775 6H18.3226Z" fill="#B1EFE0"/>
</svg>
